<svg width="29" height="29" viewBox="0 0 29 29" fill="none" xmlns="http://www.w3.org/2000/svg">
<g id="vuesax/bold/import">
<g id="import">
<path id="Vector" d="M23.8958 12.1608C22.8352 6.74369 17.5778 3.20797 12.1607 4.26861C6.74355 5.32925 3.20784 10.5866 4.26847 16.0037C5.32911 21.4209 10.5864 24.9566 16.0036 23.8959C21.4207 22.8353 24.9564 17.578 23.8958 12.1608ZM19.5314 18.6504L10.4719 12.5576L11.0522 15.5213C11.131 15.9236 10.8626 16.3226 10.4603 16.4014C10.0579 16.4802 9.65891 16.2119 9.58013 15.8095L8.65207 11.0695C8.57329 10.6671 8.84163 10.2681 9.24399 10.1894L13.984 9.26131C14.3864 9.18253 14.7853 9.45086 14.8641 9.85322C14.9429 10.2556 14.6746 10.6546 14.2722 10.7334L11.3085 11.3136L20.368 17.4064C20.544 17.5248 20.6492 17.6978 20.6857 17.8843C20.7222 18.0707 20.69 18.2707 20.5717 18.4467C20.3428 18.787 19.8717 18.8792 19.5314 18.6504Z" fill="white"/>
</g>
</g>
</svg>
